<svg width="160" height="160" viewBox="0 0 160 160" fill="none" xmlns="http://www.w3.org/2000/svg">
<rect width="160" height="160" rx="40" fill="#44A8B3"/>
<path d="M53.75 71.375C57.25 57.375 66 50.375 80 50.375C101 50.375 103.625 66.125 114.125 68.75C121.125 70.5 127.25 67.875 132.5 60.875C129 74.875 120.25 81.875 106.25 81.875C85.25 81.875 82.625 66.125 72.125 63.5C65.125 61.75 59 64.375 53.75 71.375ZM27.5 102.875C31 88.875 39.75 81.875 53.75 81.875C74.75 81.875 77.375 97.625 87.875 100.25C94.875 102 101 99.375 106.25 92.375C102.75 106.375 94 113.375 80 113.375C59 113.375 56.375 97.625 45.875 95C38.875 93.25 32.75 95.875 27.5 102.875Z" fill="white"/>
</svg>
