<svg width="160" height="160" viewBox="0 0 160 160" fill="none" xmlns="http://www.w3.org/2000/svg">
<rect width="160" height="160" rx="40" fill="#00A3FF"/>
<g clip-path="url(#clip0_1_31)">
<path d="M102.025 48.38C101.45 48.38 101.06 48.45 100.655 48.545V48.61H100.725C100.995 49.13 101.455 49.51 101.795 49.975C102.065 50.51 102.295 51.045 102.565 51.575L102.635 51.5C103.105 51.17 103.335 50.64 103.335 49.835C103.135 49.6 103.105 49.365 102.935 49.135C102.735 48.8 102.305 48.635 102.035 48.37L102.025 48.38ZM48.85 114.35H44.215C44.065 106.54 43.6 99.2 42.865 92.3H42.825L35.775 114.35H32.25L25.25 92.3H25.2C24.685 98.915 24.36 106.265 24.225 114.35H20C20.275 104.52 20.96 95.3 22.05 86.7H27.8L34.475 107.02H34.515L41.25 86.7H46.725C47.935 96.775 48.645 106 48.865 114.35H48.85ZM68.935 93.95C67.045 104.175 64.555 111.615 61.475 116.25C59.065 119.83 56.425 121.615 53.56 121.615C52.795 121.615 51.86 121.385 50.73 120.925V118.455C51.28 118.54 51.93 118.585 52.66 118.585C54 118.585 55.075 118.21 55.895 117.475C56.88 116.575 57.37 115.565 57.37 114.45C57.37 113.675 56.985 112.1 56.22 109.73L51.15 93.95H55.7L59.335 105.75C60.155 108.43 60.5 110.3 60.36 111.365C62.36 106.045 63.75 100.23 64.535 93.95H68.935ZM130.56 114.35H117.41V86.7H121.835V110.95H130.56V114.35ZM113.96 115.025L108.88 112.525C109.33 112.145 109.765 111.735 110.155 111.275C112.32 108.745 113.395 104.985 113.395 100.01C113.395 90.86 109.805 86.28 102.62 86.28C99.1 86.28 96.35 87.44 94.37 89.765C92.22 92.305 91.14 96.045 91.14 100.99C91.14 105.85 92.09 109.42 94.01 111.69C95.76 113.74 98.395 114.765 101.925 114.765C103.245 114.765 104.455 114.6 105.55 114.275L112.175 118.135L113.975 115.025H113.96ZM97.5 108.815C96.375 107.015 95.815 104.115 95.815 100.135C95.815 93.17 97.935 89.685 102.165 89.685C104.38 89.685 106.015 90.52 107.05 92.185C108.17 93.995 108.73 96.865 108.73 100.8C108.73 107.82 106.61 111.34 102.38 111.34C100.155 111.34 98.53 110.505 97.49 108.84L97.5 108.815ZM89.21 106.69C89.21 109.04 88.35 110.97 86.63 112.47C84.91 113.97 82.615 114.72 79.71 114.72C76.995 114.72 74.39 113.86 71.845 112.145L73.03 109.765C75.22 110.865 77.195 111.405 78.98 111.405C80.64 111.405 81.945 111.04 82.895 110.305C83.835 109.57 84.395 108.535 84.395 107.23C84.395 105.58 83.245 104.18 81.155 103.005C79.215 101.94 75.34 99.72 75.34 99.72C73.23 98.185 72.18 96.54 72.18 93.835C72.18 91.585 72.965 89.785 74.53 88.41C76.105 87.02 78.13 86.335 80.63 86.335C83.19 86.335 85.53 87.015 87.63 88.385L86.565 90.765C84.765 90.005 82.99 89.615 81.245 89.615C79.83 89.615 78.735 89.955 77.975 90.645C77.21 91.325 76.735 92.195 76.735 93.265C76.735 94.905 77.905 96.315 80.065 97.515C82.03 98.59 86 100.865 86 100.865C88.165 102.39 89.24 104.015 89.24 106.705L89.21 106.69ZM136.12 77.43C133.445 77.36 131.37 77.63 129.635 78.37C129.135 78.57 128.335 78.57 128.265 79.205C128.54 79.47 128.58 79.905 128.815 80.275C129.215 80.945 129.905 81.84 130.545 82.31C131.245 82.86 131.945 83.39 132.68 83.86C133.98 84.66 135.455 85.135 136.73 85.94C137.455 86.41 138.195 87.005 138.93 87.505C139.295 87.755 139.53 88.205 140 88.365V88.265C139.77 87.965 139.7 87.53 139.475 87.195C139.14 86.86 138.805 86.56 138.475 86.23C137.505 84.93 136.3 83.795 135 82.855C133.93 82.125 131.59 81.105 131.15 79.88L131.085 79.81C131.815 79.745 132.685 79.48 133.385 79.28C134.52 78.98 135.56 79.045 136.735 78.75C137.265 78.615 137.8 78.45 138.335 78.28V77.98C137.735 77.38 137.285 76.565 136.665 76.005C134.965 74.53 133.08 73.095 131.145 71.89C130.095 71.22 128.765 70.79 127.66 70.22C127.26 70.02 126.59 69.92 126.36 69.585C125.76 68.855 125.41 67.885 124.985 67.015C124.025 65.175 123.085 63.14 122.25 61.2C121.65 59.89 121.285 58.585 120.55 57.385C117.1 51.7 113.365 48.255 107.62 44.885C106.385 44.185 104.905 43.885 103.34 43.515C102.505 43.475 101.67 43.415 100.84 43.38C100.29 43.145 99.76 42.51 99.29 42.205C97.39 41.005 92.47 38.405 91.07 41.845C90.17 44.015 92.405 46.155 93.18 47.255C93.755 48.02 94.48 48.895 94.88 49.755C95.115 50.335 95.18 50.93 95.415 51.535C95.945 53.005 96.45 54.645 97.15 56.02C97.515 56.72 97.915 57.455 98.385 58.085C98.655 58.45 99.115 58.62 99.22 59.22C98.75 59.9 98.72 60.89 98.45 61.72C97.25 65.505 97.72 70.185 99.42 72.97C99.955 73.8 101.23 75.64 102.935 74.935C104.435 74.335 104.105 72.435 104.535 70.76C104.635 70.36 104.57 70.095 104.775 69.825V69.9C105.245 70.84 105.715 71.735 106.145 72.675C107.175 74.315 108.975 76.015 110.48 77.15C111.28 77.75 111.915 78.79 112.915 79.16V79.06H112.84C112.625 78.77 112.34 78.63 112.07 78.395C111.47 77.795 110.795 77.06 110.32 76.395C108.92 74.51 107.685 72.445 106.585 70.305C106.035 69.255 105.575 68.125 105.135 67.09C104.935 66.69 104.935 66.09 104.6 65.89C104.1 66.62 103.365 67.255 103 68.155C102.365 69.595 102.3 71.365 102.06 73.205C101.925 73.24 101.99 73.205 101.925 73.275C100.855 73.015 100.49 71.905 100.09 70.975C99.09 68.6 98.925 64.785 99.79 62.05C100.025 61.35 101.025 59.14 100.625 58.47C100.415 57.835 99.755 57.47 99.39 56.955C98.955 56.335 98.49 55.53 98.19 54.82C97.39 52.95 96.99 50.88 96.12 49.01C95.72 48.145 95.02 47.24 94.45 46.445C93.815 45.545 93.115 44.91 92.61 43.845C92.445 43.48 92.21 42.875 92.475 42.475C92.545 42.205 92.685 42.1 92.945 42.025C93.385 41.665 94.62 42.135 95.055 42.335C96.29 42.835 97.33 43.305 98.365 44.005C98.835 44.335 99.34 44.97 99.94 45.135H100.64C101.71 45.37 102.915 45.205 103.915 45.5C105.69 46.07 107.29 46.9 108.725 47.8C113.105 50.58 116.705 54.525 119.15 59.23C119.55 60 119.725 60.705 120.09 61.505C120.79 63.155 121.655 64.82 122.365 66.415C123.065 67.99 123.74 69.595 124.745 70.9C125.245 71.6 127.255 71.965 128.155 72.33C128.82 72.63 129.855 72.905 130.455 73.27C131.605 73.97 132.725 74.77 133.805 75.54C134.355 75.92 136.02 76.755 136.12 77.43Z" fill="white"/>
</g>
<defs>
<clipPath id="clip0_1_31">
<rect width="120" height="120" fill="white" transform="translate(20 20)"/>
</clipPath>
</defs>
</svg>
