<svg width="160" height="160" viewBox="0 0 160 160" fill="none" xmlns="http://www.w3.org/2000/svg">
<rect width="160" height="160" rx="40" fill="#1A1A1A"/>
<path d="M53.5958 65.5588H72.4567V67.0579H55.3247V78.3406H71.4351V79.8397H55.3247V92.2269H72.6532V93.726H53.5958V65.5588ZM74.1463 65.5588H76.1503L85.0306 77.9461L94.1075 65.5588L106.453 49.8242L86.1702 79.2479L96.6223 93.726H94.5397L85.0306 80.5498L75.4823 93.726H73.439L83.9697 79.2479L74.1463 65.5588ZM97.3688 67.0579V65.5588H118.862V67.0579H108.96V93.726H107.232V67.0579H97.3688ZM30 65.5588H32.1611L61.9621 110.153L49.6468 93.726L31.8075 67.6891L31.7289 93.726H30V65.5588ZM118.688 91.7745C118.335 91.7745 118.07 91.5008 118.07 91.1471C118.07 90.7934 118.335 90.5197 118.688 90.5197C119.046 90.5197 119.306 90.7934 119.306 91.1471C119.306 91.5008 119.046 91.7745 118.688 91.7745ZM120.387 90.124H121.312C121.325 90.625 121.691 90.9619 122.229 90.9619C122.83 90.9619 123.171 90.5997 123.171 89.9218V85.627H124.113V89.9261C124.113 91.1471 123.406 91.8503 122.237 91.8503C121.14 91.8503 120.387 91.1682 120.387 90.124ZM125.345 90.0692H126.278C126.358 90.6461 126.922 91.0124 127.733 91.0124C128.49 91.0124 129.045 90.6208 129.045 90.0818C129.045 89.6187 128.692 89.3408 127.889 89.1513L127.107 88.9618C126.009 88.705 125.509 88.1744 125.509 87.2818C125.509 86.1997 126.392 85.4797 127.717 85.4797C128.949 85.4797 129.849 86.1997 129.903 87.2228H128.987C128.898 86.6628 128.41 86.3134 127.704 86.3134C126.96 86.3134 126.463 86.6713 126.463 87.2186C126.463 87.6523 126.783 87.9007 127.574 88.086L128.242 88.2502C129.487 88.5408 130 89.046 130 89.9597C130 91.1219 129.1 91.8503 127.662 91.8503C126.316 91.8503 125.412 91.1555 125.345 90.0692Z" fill="white"/>
</svg>
