<svg width="160" height="160" viewBox="0 0 160 160" fill="none" xmlns="http://www.w3.org/2000/svg">
<rect width="160" height="160" rx="40" fill="#108775"/>
<path d="M118.62 121.36L118.735 121.135C118.84 120.948 118.929 120.752 119 120.55L119.01 120.525C119.369 119.555 119.462 118.508 119.28 117.49L119.285 117.525C119.091 116.422 118.693 115.366 118.11 114.41L118.135 114.45L91.55 67.685L87.49 60.585L83.455 67.685L56.885 114.45C56.3728 115.39 56.0277 116.412 55.865 117.47L55.86 117.525C55.6442 118.727 55.7832 119.966 56.26 121.09L56.245 121.05C56.3163 121.226 56.3998 121.396 56.495 121.56L56.485 121.54C57.285 122.915 58.985 124.55 62.735 124.55H112.225C113.01 124.55 116.85 124.39 118.625 121.365L118.62 121.36ZM87.485 74.78L111.78 117.52H63.2L87.485 74.78ZM138.73 114.45L103.65 52.65C103.29 52 101.265 48.715 97.74 48.715C96.155 48.715 93.88 49.39 92.03 52.64L87.495 60.59L91.53 67.69L97.78 56.63L132.485 117.53H119.285C119.455 118.551 119.355 119.599 118.995 120.57L119.01 120.53C118.934 120.748 118.839 120.959 118.725 121.16L118.735 121.14L118.625 121.365C116.85 124.39 113.01 124.55 112.26 124.55H132.905C133.665 124.55 137.49 124.39 139.265 121.365C140.05 119.99 140.615 117.68 138.73 114.455V114.45ZM56.52 121.535C56.4371 121.386 56.362 121.232 56.295 121.075L56.285 121.045C55.794 119.927 55.6478 118.687 55.865 117.485L55.86 117.525L27.505 117.52L69.65 43.36L83.485 67.68L87.495 60.58L75.435 39.335C75.1 38.725 73.06 35.45 69.55 35.45C67.965 35.45 65.69 36.135 63.84 39.385L21.15 114.445C20.79 115.095 19.025 118.505 20.775 121.53C21.575 122.905 23.275 124.54 27.025 124.54H62.78C59.055 124.54 57.33 122.93 56.53 121.53L56.52 121.535Z" fill="white"/>
</svg>
