<svg width="160" height="160" viewBox="0 0 160 160" fill="none" xmlns="http://www.w3.org/2000/svg">
<rect width="160" height="160" rx="40" fill="#47495F"/>
<path fill-rule="evenodd" clip-rule="evenodd" d="M51.3232 110.503C51.8641 111.129 52.7748 111.505 53.75 111.505H117.917C118.992 111.505 119.98 111.049 120.488 110.317C120.995 109.586 120.94 108.698 120.343 108.008L108.677 94.511C108.136 93.8852 107.225 93.5094 106.25 93.5094H42.0833C41.0077 93.5094 40.0193 93.966 39.5118 94.6974C39.0042 95.4288 39.0599 96.3163 39.6566 97.0066L51.3232 110.503ZM55.3109 107.006L47.5332 98.0083H104.689L112.467 107.006H55.3109Z" fill="white"/>
<path fill-rule="evenodd" clip-rule="evenodd" d="M51.3232 65.5142C51.8641 66.1395 52.7748 66.5156 53.75 66.5156H117.917C118.992 66.5156 119.98 66.059 120.488 65.3274C120.995 64.5959 120.94 63.7087 120.343 63.0181L108.677 49.5213C108.136 48.8959 107.225 48.5198 106.25 48.5198H42.0833C41.0077 48.5198 40.0193 48.9764 39.5118 49.708C39.0042 50.439 39.0599 51.3267 39.6566 52.0173L51.3232 65.5142ZM55.3109 62.0167L47.5332 53.0187H104.689L112.467 62.0167H55.3109Z" fill="white"/>
<path fill-rule="evenodd" clip-rule="evenodd" d="M51.3232 72.016C51.8641 71.3907 52.7748 71.0146 53.75 71.0146H117.917C118.992 71.0146 119.98 71.4712 120.488 72.2027C120.995 72.9343 120.94 73.8215 120.343 74.5121L108.677 88.0089C108.136 88.6343 107.225 89.0104 106.25 89.0104H42.0833C41.0077 89.0104 40.0193 88.5538 39.5118 87.8222C39.0042 87.0907 39.0599 86.2035 39.6566 85.5129L51.3232 72.016ZM55.3109 75.5135L47.5332 84.5114H104.689L112.467 75.5135H55.3109Z" fill="white"/>
</svg>
