<svg width="160" height="160" viewBox="0 0 160 160" fill="none" xmlns="http://www.w3.org/2000/svg">
<rect width="160" height="160" rx="40" fill="#44B78B"/>
<path d="M73.0063 35H87.875V103.134C81.5281 104.436 75.0679 105.108 68.5888 105.14C50.4313 105.121 40.9813 97.01 40.9813 81.4325C40.9813 66.4325 51.005 56.6825 66.5413 56.6825C68.7202 56.64 70.8949 56.8923 73.0063 57.4325V35ZM73.0063 69.2825C71.3898 68.7493 69.6942 68.4956 67.9925 68.5325C60.4925 68.5325 56.1313 73.1188 56.1313 81.155C56.1313 88.9812 60.2825 93.3012 67.8988 93.3012C69.6081 93.3009 71.3152 93.1755 73.0063 92.9262V69.3012V69.2825Z" fill="white"/>
<path d="M111.5 57.7213V91.8463C111.5 103.595 110.619 109.242 108.039 114.114C105.406 119.067 101.1 122.925 95.8888 125L82.0963 118.501C87.107 116.785 91.3037 113.273 93.875 108.643C95.9975 104.439 96.6688 99.5675 96.6688 86.7538V57.7213H111.5Z" fill="white"/>
<path d="M111.519 35.075H96.6537V50.18H111.519V35.075Z" fill="white"/>
</svg>
