<svg width="160" height="160" viewBox="0 0 160 160" fill="none" xmlns="http://www.w3.org/2000/svg">
<rect width="160" height="160" rx="40" fill="#00D8FF"/>
<path d="M112.22 64.3061C111.183 63.949 110.108 63.6112 109.001 63.2917C109.183 62.5493 109.35 61.8164 109.498 61.0961C111.935 49.2675 110.342 39.7384 104.901 36.601C99.6845 33.5926 91.1529 36.7293 82.5363 44.228C81.7077 44.9491 80.8768 45.7125 80.0463 46.5127C79.4929 45.9833 78.9404 45.4717 78.3893 44.9824C69.3589 36.9643 60.3073 33.5853 54.8721 36.7318C49.6603 39.7489 48.1169 48.7072 50.3104 59.9172C50.5222 61 50.7698 62.1057 51.0498 63.2299C49.7687 63.5936 48.532 63.9813 47.3486 64.3937C36.7615 68.0848 30 73.8698 30 79.8703C30 86.0677 37.2584 92.2838 48.2858 96.0529C49.156 96.3503 50.059 96.6316 50.9896 96.8986C50.6875 98.1145 50.4248 99.306 50.2043 100.468C48.1128 111.484 49.7461 120.23 54.944 123.228C60.313 126.324 69.3236 123.142 78.0977 115.472C78.7912 114.866 79.4872 114.223 80.1844 113.549C81.0881 114.419 81.9904 115.243 82.8879 116.016C91.3866 123.329 99.7805 126.282 104.974 123.276C110.337 120.171 112.08 110.775 109.817 99.343C109.644 98.4699 109.443 97.578 109.217 96.6702C109.85 96.4831 110.471 96.29 111.077 96.0892C122.541 92.2909 130 86.1505 130 79.8703C130 73.8481 123.02 68.0241 112.22 64.3061ZM109.734 92.0342C109.187 92.2152 108.626 92.3902 108.054 92.5598C106.788 88.5533 105.08 84.2929 102.99 79.8911C104.985 75.5943 106.627 71.3883 107.857 67.4077C108.88 67.7037 109.873 68.016 110.83 68.3454C120.083 71.5311 125.728 76.2411 125.728 79.8703C125.728 83.7361 119.632 88.7544 109.734 92.0342ZM105.626 100.173C106.627 105.228 106.77 109.798 106.107 113.371C105.512 116.581 104.314 118.722 102.833 119.579C99.6815 121.403 92.9421 119.032 85.6739 112.777C84.8407 112.06 84.0014 111.295 83.1595 110.484C85.9772 107.403 88.7933 103.82 91.5418 99.8414C96.3761 99.4124 100.943 98.7111 105.085 97.7537C105.289 98.5765 105.47 99.3836 105.626 100.173ZM64.0923 119.264C61.0132 120.351 58.561 120.382 57.0786 119.527C53.9243 117.708 52.6129 110.685 54.4017 101.265C54.6065 100.186 54.8504 99.0778 55.1315 97.945C59.2279 98.8508 63.7617 99.5027 68.6076 99.8955C71.3745 103.789 74.272 107.368 77.1919 110.501C76.5539 111.117 75.9185 111.703 75.2866 112.256C71.4068 115.647 67.5187 118.053 64.0923 119.264ZM49.6674 92.0105C44.7913 90.3439 40.7645 88.1779 38.0042 85.8142C35.524 83.6902 34.2718 81.5814 34.2718 79.8703C34.2718 76.229 39.7006 71.5845 48.7548 68.4277C49.8534 68.0446 51.0035 67.6836 52.197 67.3445C53.4483 71.415 55.0898 75.6708 57.0707 79.9743C55.0642 84.3416 53.3993 88.6652 52.1357 92.7834C51.2849 92.5388 50.4606 92.2814 49.6674 92.0105ZM54.5028 59.0968C52.6235 49.4923 53.8716 42.2471 57.0124 40.429C60.3578 38.4922 67.7557 41.2537 75.5527 48.1769C76.0511 48.6194 76.5515 49.0826 77.0532 49.5618C74.1478 52.6815 71.2768 56.2333 68.5344 60.1037C63.8313 60.5397 59.3294 61.2399 55.1902 62.1776C54.93 61.1308 54.6994 60.1023 54.5028 59.0968ZM97.6382 69.7481C96.6487 68.0389 95.6329 66.3702 94.5973 64.747C97.7879 65.1504 100.845 65.6858 103.716 66.341C102.854 69.1032 101.78 71.9912 100.515 74.9519C99.608 73.2297 98.6486 71.4933 97.6382 69.7481ZM80.0477 52.6148C82.0181 54.7495 83.9914 57.1329 85.9323 59.7189C83.9765 59.6265 81.9964 59.5785 80 59.5785C78.0224 59.5785 76.057 59.6255 74.1132 59.7162C76.0561 57.1543 78.0465 54.7741 80.0477 52.6148ZM62.3445 69.7776C61.3561 71.4916 60.4145 73.2185 59.5216 74.9486C58.2776 71.9983 57.2133 69.0971 56.344 66.2958C59.1971 65.6573 62.2396 65.1352 65.41 64.7395C64.3598 66.3777 63.3356 68.059 62.3445 69.7776ZM65.5013 95.3058C62.2258 94.9404 59.1375 94.4452 56.2851 93.8243C57.1683 90.973 58.256 88.0098 59.5264 84.996C60.4216 86.7249 61.3669 88.4525 62.3614 90.1702C63.3744 91.9201 64.4241 93.6342 65.5013 95.3058ZM80.1659 107.427C78.1412 105.242 76.1216 102.826 74.1492 100.227C76.0639 100.302 78.016 100.34 80 100.34C82.0383 100.34 84.0532 100.294 86.0365 100.206C84.0892 102.852 82.123 105.272 80.1659 107.427ZM100.556 84.8423C101.892 87.8888 103.019 90.8365 103.914 93.6392C101.014 94.3007 97.8839 94.8334 94.5856 95.2293C95.6237 93.5842 96.6484 91.8868 97.6553 90.1408C98.674 88.3744 99.6413 86.6052 100.556 84.8423ZM93.9549 88.0066C92.3917 90.717 90.7869 93.3044 89.1577 95.7467C86.1903 95.9589 83.1246 96.0682 80 96.0682C76.888 96.0682 73.861 95.9715 70.9461 95.7823C69.2512 93.308 67.6115 90.7129 66.0583 88.0299C64.5091 85.3543 63.0837 82.656 61.7918 79.9728C63.0834 77.2835 64.5054 74.5822 66.0456 71.9113L66.0453 71.9118C67.5896 69.2338 69.2149 66.6514 70.8941 64.1925C73.8681 63.9677 76.9178 63.8504 79.9998 63.8504C83.0958 63.8504 86.1495 63.9686 89.1226 64.1954C90.7762 66.6363 92.3905 69.2103 93.9409 71.8887C95.5088 74.5971 96.9492 77.2804 98.2518 79.9121C96.9531 82.5891 95.516 85.2994 93.9549 88.0066ZM102.767 40.3019C106.116 42.233 107.418 50.0212 105.314 60.2339C105.18 60.8855 105.029 61.5493 104.865 62.2219C100.716 61.2646 96.211 60.5523 91.4943 60.1098C88.7465 56.1968 85.8991 52.6395 83.0409 49.5598C83.8093 48.8206 84.5767 48.1157 85.3409 47.4505C92.7235 41.0257 99.6236 38.489 102.767 40.3019ZM80 70.9407C84.9316 70.9407 88.9297 74.9385 88.9297 79.8703C88.9297 84.8019 84.9316 88.8 80 88.8C75.0684 88.8 71.0703 84.8019 71.0703 79.8703C71.0703 74.9385 75.0684 70.9407 80 70.9407Z" fill="white"/>
</svg>
