<svg width="160" height="160" viewBox="0 0 160 160" fill="none" xmlns="http://www.w3.org/2000/svg">
<rect width="160" height="160" rx="40" fill="#8CC84B"/>
<path d="M83.6641 37.1835C81.4459 35.936 78.5541 35.9416 76.3341 37.1835C65.2153 43.3196 54.0963 49.4575 42.9755 55.5908C40.8115 56.7292 39.352 59.0531 39.3753 61.465V98.54C39.3596 100.999 40.8944 103.345 43.1142 104.468C46.3085 106.167 49.4119 108.039 52.6639 109.626C56.4203 111.472 61.1201 111.88 64.9225 109.955C68.0091 108.359 69.38 104.811 69.3759 101.55C69.4009 89.3144 69.38 77.0784 69.3856 64.8425C69.4591 64.2987 69.0506 63.7175 68.4575 63.7306C67.0366 63.7081 65.6137 63.7175 64.1928 63.7269C63.6559 63.6762 63.1319 64.1222 63.1725 64.6619C63.1534 76.8187 63.1762 88.9794 63.1609 101.138C63.1919 102.82 62.0556 104.436 60.4348 105.004C56.6912 106.317 46.0062 99.3787 46.0062 99.3787C45.6141 99.1972 45.3651 98.7719 45.4035 98.3494C45.4035 86.1175 45.4054 73.8853 45.4035 61.6553C45.3496 61.1622 45.6535 60.7181 46.1063 60.5168C57.1885 54.4169 68.265 48.3017 79.3472 42.198C79.7322 41.9411 80.2687 41.9419 80.6528 42.1999C91.735 48.3017 102.813 54.4113 113.897 60.5115C114.352 60.7125 114.643 61.1641 114.597 61.6553C114.595 73.8853 114.6 86.1175 114.593 98.3478C114.626 98.7806 114.402 99.2 113.998 99.39C103.019 105.457 91.9153 111.328 81.0359 117.571C80.5612 117.843 80.0234 118.152 79.4916 117.852C76.6306 116.269 73.8044 114.625 70.9528 113.027C70.6428 112.834 70.2481 112.751 69.9247 112.968C68.6462 113.641 67.4437 114.187 65.9756 114.768C63.9137 115.584 64.2431 115.918 66.1028 117.002C69.4375 118.889 72.7778 120.768 76.1125 122.657C78.3078 124.027 81.2575 124.125 83.5234 122.859C94.6441 116.731 105.761 110.595 116.884 104.467C119.098 103.337 120.64 101.001 120.625 98.5397V61.465C120.646 59.102 119.242 56.8196 117.144 55.6643C105.986 49.4983 94.8234 43.3457 83.6641 37.1835Z" fill="white"/>
<path d="M100.443 65.0194C96.0787 62.6844 90.8862 62.56 86.0359 62.8653C82.5319 63.2116 78.8465 64.1784 76.2937 66.6903C73.6753 69.2153 73.1053 73.2928 74.349 76.5891C75.2403 78.9184 77.4837 80.4331 79.8037 81.2344C82.7922 82.2894 85.9309 82.6156 89.0706 82.9419C91.9344 83.2394 94.7991 83.5372 97.5516 84.3881C98.6759 84.7606 99.9853 85.3306 100.33 86.5541C100.648 88.0028 100.299 89.6869 99.1228 90.6934C95.3866 93.6506 84.9934 93.1975 81.3019 90.87C79.8094 89.8784 79.1662 88.1231 78.9047 86.4503C78.8756 85.9291 78.4559 85.4509 77.89 85.4906C76.4728 85.4737 75.0556 85.4775 73.6384 85.4887C73.144 85.4472 72.63 85.7991 72.6028 86.3038C72.3115 93.9653 79.3481 97.3053 85.9497 98.0406C89.7212 98.4 93.5756 98.3794 97.2897 97.57C100.082 96.9344 102.881 95.7638 104.803 93.6134C107.173 91 107.639 87.1091 106.576 83.8538C105.763 81.4247 103.441 79.8666 101.067 79.065C97.8394 77.9581 94.0137 77.3631 91.09 77.0847C86.8403 76.68 81.7903 76.8453 80.5875 74.0528C80.1078 72.5906 80.5159 70.775 81.8597 69.8756C85.415 67.4641 92.6509 67.7844 96.3328 69.5859C98.0234 70.4325 99.0031 72.1713 99.4075 73.9266C99.4825 74.4422 99.8294 74.9803 100.426 74.9578C101.834 74.9859 103.241 74.9653 104.648 74.9672C105.132 75.0009 105.661 74.7281 105.756 74.2331C105.696 70.5644 103.822 66.8087 100.443 65.0194Z" fill="white"/>
</svg>
