<svg width="160" height="160" viewBox="0 0 160 160" fill="none" xmlns="http://www.w3.org/2000/svg">
<rect width="160" height="160" rx="40" fill="#439945"/>
<path d="M82.325 132.5L79.5087 131.566C79.5087 131.566 79.8837 117.316 74.7275 116.315C71.3525 112.385 75.2262 -51.4637 87.5637 115.756C85.2229 116.944 83.4318 118.99 82.565 121.468C82.1004 125.127 82.02 128.824 82.325 132.5Z" fill="white"/>
<path d="M83.8475 118.734C91.3459 113.089 97.0884 105.432 100.407 96.6533C103.727 87.8743 104.486 78.3336 102.597 69.14C97.085 44.8213 84.0313 36.8263 82.625 33.7738C81.4117 31.873 80.3761 29.8645 79.5312 27.7738L80.57 95.5325C80.57 95.5325 78.4175 116.24 83.8475 118.734Z" fill="url(#paint0_linear_1_26)"/>
<path d="M78.0763 119.634C78.0763 119.634 55.1225 104 56.45 76.3437C56.5738 68.0062 58.4855 59.7923 62.0559 52.2568C65.6263 44.7214 70.7723 38.0399 77.1462 32.6638C77.8911 32.0309 78.4829 31.2375 78.8771 30.3432C79.2714 29.4488 79.4578 28.4768 79.4225 27.5C80.8512 30.575 80.6187 73.4112 80.7687 78.4212C81.35 97.91 79.685 115.955 78.0763 119.634Z" fill="white"/>
<defs>
<linearGradient id="paint0_linear_1_26" x1="75.2636" y1="27.2896" x2="89.5737" y2="116.648" gradientUnits="userSpaceOnUse">
<stop stop-color="#F6FFF5"/>
<stop offset="1" stop-color="#C7FFC9"/>
</linearGradient>
</defs>
</svg>
