<svg width="160" height="160" viewBox="0 0 160 160" fill="none" xmlns="http://www.w3.org/2000/svg">
<rect width="160" height="160" rx="40" fill="#E2E4CE"/>
<g clip-path="url(#clip0_4_290)">
<path d="M96.6667 96.6667C105.871 96.6667 113.333 89.2048 113.333 80C113.333 70.7953 105.871 63.3333 96.6667 63.3333C87.4619 63.3333 80 70.7953 80 80C80 89.2048 87.4619 96.6667 96.6667 96.6667Z" fill="#19BCFE"/>
<path fill-rule="evenodd" clip-rule="evenodd" d="M63.3333 130C72.5381 130 80 122.538 80 113.333C80 110.821 80 105.265 80 96.6667C72.5127 96.6667 66.9571 96.6667 63.3333 96.6667C54.1286 96.6667 46.6667 104.129 46.6667 113.333C46.6667 122.538 54.1286 130 63.3333 130Z" fill="#09CF83"/>
<path fill-rule="evenodd" clip-rule="evenodd" d="M63.3333 96.6667C66.4016 96.6667 71.9571 96.6667 80 96.6667V63.3333C71.9571 63.3333 66.4016 63.3333 63.3333 63.3333C54.1286 63.3333 46.6667 70.7953 46.6667 80C46.6667 89.2048 54.1286 96.6667 63.3333 96.6667Z" fill="#A259FF"/>
<path fill-rule="evenodd" clip-rule="evenodd" d="M63.3333 63.3333C66.4016 63.3333 71.9571 63.3333 80 63.3333V30C71.9571 30 66.4016 30 63.3333 30C54.1286 30 46.6667 37.4619 46.6667 46.6667C46.6667 55.8714 54.1286 63.3333 63.3333 63.3333Z" fill="#F24E1E"/>
<path fill-rule="evenodd" clip-rule="evenodd" d="M96.6667 63.3333H80V30H96.6667C105.871 30 113.333 37.4619 113.333 46.6667C113.333 55.8714 105.871 63.3333 96.6667 63.3333Z" fill="#FF7262"/>
</g>
<defs>
<clipPath id="clip0_4_290">
<rect width="100" height="100" fill="white" transform="translate(30 30)"/>
</clipPath>
</defs>
</svg>
