<svg width="160" height="160" viewBox="0 0 160 160" fill="none" xmlns="http://www.w3.org/2000/svg">
<rect width="160" height="160" rx="40" fill="#5382A1"/>
<path d="M69.38 135.879C89.6338 137.176 120.736 135.163 121.471 125.578C121.471 125.578 120.058 129.208 104.731 132.095C96.2675 133.621 86.525 134.491 76.5763 134.491C68.4275 134.491 60.4175 133.906 52.5838 132.778L53.48 132.883C53.48 132.879 56.0713 135.024 69.38 135.879ZM91.25 23.765C91.25 23.765 102.939 35.4538 80.1688 53.4275C61.91 67.8463 76.0063 76.07 80.165 85.4638C69.5075 75.8413 61.6888 67.385 66.9313 59.5063C74.6338 47.9375 95.9675 42.3313 91.25 23.765ZM103.974 106.168C125.075 95.2025 115.318 84.6613 108.511 86.0863C107.578 86.2625 106.768 86.4875 105.984 86.7688L106.096 86.735C106.543 86.1088 107.158 85.625 107.874 85.3513L107.9 85.3438C121.374 80.6075 131.735 99.3125 103.55 106.723C103.723 106.569 103.865 106.385 103.966 106.179L103.974 106.168ZM67.31 85.67C67.31 85.67 46.8688 90.5263 60.0763 92.285C63.6313 92.5775 67.7713 92.7425 71.9488 92.7425C77.2888 92.7425 82.565 92.4688 87.7663 91.94L87.1138 91.9925C95.5775 91.28 104.068 89.7575 104.068 89.7575C102.076 90.6275 100.385 91.5463 98.7838 92.5925L98.9225 92.51C78.1663 97.97 38.0675 95.4313 49.6138 89.8475C54.7025 87.2113 60.725 85.6663 67.1075 85.6663C67.1788 85.6663 67.25 85.6663 67.3213 85.6663L67.31 85.67ZM114.35 119.851C114.35 119.851 117.534 122.473 110.851 124.494C98.1425 128.345 57.9538 129.504 46.7975 124.648C42.785 122.9 50.3113 120.478 52.6738 119.971C53.765 119.694 55.0213 119.533 56.3113 119.533C56.3975 119.533 56.48 119.533 56.5663 119.536H56.555C52.0888 116.39 27.7063 125.709 44.1688 128.379C89.0638 135.658 125.994 125.098 114.35 119.851ZM85.2313 77.54C86.4088 78.9538 87.125 80.795 87.125 82.7975C87.125 85.4938 85.8275 87.89 83.825 89.3938L83.8025 89.4088C83.8025 89.4088 97.5763 82.295 91.25 73.3925C85.34 65.09 80.81 60.965 105.342 46.7375C105.342 46.7338 66.8413 56.3488 85.2313 77.54ZM62.5475 98.4313C62.5475 98.4313 57.7288 101.998 65.0863 102.763C68.3075 103.168 72.0313 103.396 75.8113 103.396C82.6588 103.396 89.33 102.639 95.7425 101.203L95.135 101.315C96.425 102.523 97.9663 103.483 99.6688 104.105L99.7625 104.135C73.1488 111.92 43.4975 104.743 62.5438 98.4275L62.5475 98.4313ZM65.2438 110.743C65.2438 110.743 60.9463 113.244 68.3038 114.088C71 114.489 74.1088 114.718 77.2738 114.718C82.3513 114.718 87.29 114.129 92.0263 113.011L91.5913 113.098C93.3425 114.166 95.3788 115.186 97.505 116.03L97.7825 116.128C75.7625 125.563 47.9563 115.576 65.2475 110.743H65.2438Z" fill="white"/>
</svg>
