<svg width="160" height="160" viewBox="0 0 160 160" fill="none" xmlns="http://www.w3.org/2000/svg">
<rect width="160" height="160" rx="40" fill="#98A4AC"/>
<g clip-path="url(#clip0_1_46)">
<path d="M109.672 89.436C111.986 90.4352 113.368 92.315 113.368 94.4568C113.368 97.2937 111.206 98.9847 107.582 98.9847C103.738 98.9847 101.952 95.5664 101.494 94.5225L100.931 93.2291H93.7317L93.7198 93.2224H87.0492C85.2269 96.2902 81.5566 99.117 77.2891 99.117C69.588 99.117 65.7451 93.0446 65.2538 87.0489H96.7277V85.7346C96.7277 83.249 96.4716 80.9092 95.9932 78.737C96.8939 81.5243 98.948 84.4143 103.253 86.46C104.826 87.2175 107.2 88.3473 109.672 89.436ZM76.84 70.3848C83.2814 70.3848 86.4368 74.8689 87.3509 79.4373H65.9128C67.031 74.8596 71.0052 70.3848 76.8399 70.3848M140 70.517V62.313H133.309V52.6169H125.094V62.313H108.549C100.908 62.3172 95.362 67.5032 95.362 74.649C95.3633 75.4718 95.4372 76.2928 95.5828 77.1026C92.9792 67.9986 86.1166 62.313 76.9006 62.313C65.6272 62.313 57.0086 71.1718 56.2866 83.1732V80.6219C56.2866 70.5255 48.1465 62.313 38.1429 62.313C28.1391 62.313 19.9991 70.5255 19.9991 80.6219V106.871H28.3144V80.6219C28.3144 75.1562 32.7218 70.7049 38.1429 70.7049C43.5612 70.7049 47.9713 75.1554 47.9713 80.6219V106.871H56.2866V86.4489C57.0136 98.4933 65.7426 107.383 77.1618 107.383C84.1331 107.383 90.2822 103.297 93.7654 98.5641C96.3639 104.169 101.442 107.383 107.714 107.383C114.984 107.383 122.342 102.697 122.342 93.7362C122.342 88.3733 119.256 83.9912 113.651 81.3927C113.032 81.1073 112.416 80.8169 111.802 80.5215L111.727 80.4835C111.068 80.1683 110.407 79.8574 109.744 79.5509C106.08 77.8918 104.337 76.6769 104.337 74.2537C104.337 72.1219 106.227 70.5169 108.56 70.5169H125.094V93.8912C125.094 101.334 131.092 107.382 138.462 107.382V99.0916C135.621 99.0916 133.309 96.7585 133.309 93.8912V70.5172C136.596 70.5197 139.127 70.517 140 70.517Z" fill="white"/>
</g>
<defs>
<clipPath id="clip0_1_46">
<rect width="120" height="120" fill="white" transform="translate(20 20)"/>
</clipPath>
</defs>
</svg>
